<?xml version="1.0" encoding="UTF-8" standalone="no"?>
<!DOCTYPE svg PUBLIC "-//W3C//DTD SVG 1.1//EN"
 "http://www.w3.org/Graphics/SVG/1.1/DTD/svg11.dtd">
<!-- Generated by graphviz version 2.43.0 (0)
 -->
<!-- Title: snakemake_dag Pages: 1 -->
<svg width="1811pt" height="636pt"
 viewBox="0.00 0.00 1811.00 636.00" xmlns="http://www.w3.org/2000/svg" xmlns:xlink="http://www.w3.org/1999/xlink">
<g id="graph0" class="graph" transform="scale(1 1) rotate(0) translate(4 632)">
<title>snakemake_dag</title>
<polygon fill="white" stroke="transparent" points="-4,4 -4,-632 1807,-632 1807,4 -4,4"/>
<!-- 0 -->
<g id="node1" class="node">
<title>0</title>
<path fill="none" stroke="#d89556" stroke-width="2" d="M743,-36C743,-36 713,-36 713,-36 707,-36 701,-30 701,-24 701,-24 701,-12 701,-12 701,-6 707,0 713,0 713,0 743,0 743,0 749,0 755,-6 755,-12 755,-12 755,-24 755,-24 755,-30 749,-36 743,-36"/>
<text text-anchor="middle" x="728" y="-15.5" font-family="sans" font-size="10.00">all</text>
</g>
<!-- 1 -->
<g id="node2" class="node">
<title>1</title>
<path fill="none" stroke="#b6d856" stroke-width="2" d="M76,-412C76,-412 12,-412 12,-412 6,-412 0,-406 0,-400 0,-400 0,-388 0,-388 0,-382 6,-376 12,-376 12,-376 76,-376 76,-376 82,-376 88,-382 88,-388 88,-388 88,-400 88,-400 88,-406 82,-412 76,-412"/>
<text text-anchor="middle" x="44" y="-391.5" font-family="sans" font-size="10.00">fastqc_pretrim</text>
</g>
<!-- 1&#45;&gt;0 -->
<g id="edge1" class="edge">
<title>1&#45;&gt;0</title>
<path fill="none" stroke="grey" stroke-width="2" d="M47.44,-375.59C52.41,-348.9 61,-296.19 61,-251 61,-251 61,-251 61,-169 61,-122.2 64.12,-99.49 102,-72 149.71,-37.38 563.22,-23.44 690.72,-19.94"/>
<polygon fill="grey" stroke="grey" stroke-width="2" points="690.88,-23.43 700.79,-19.66 690.69,-16.44 690.88,-23.43"/>
</g>
<!-- 2 -->
<g id="node3" class="node">
<title>2</title>
<path fill="none" stroke="#56d89a" stroke-width="2" d="M200,-628C200,-628 102,-628 102,-628 96,-628 90,-622 90,-616 90,-616 90,-604 90,-604 90,-598 96,-592 102,-592 102,-592 200,-592 200,-592 206,-592 212,-598 212,-604 212,-604 212,-616 212,-616 212,-622 206,-628 200,-628"/>
<text text-anchor="middle" x="151" y="-613" font-family="sans" font-size="10.00">link_fastq_pe</text>
<text text-anchor="middle" x="151" y="-602" font-family="sans" font-size="10.00">sample: mouse_ATAC</text>
</g>
<!-- 2&#45;&gt;1 -->
<g id="edge24" class="edge">
<title>2&#45;&gt;1</title>
<path fill="none" stroke="grey" stroke-width="2" d="M142.42,-591.85C123.76,-554.52 79.35,-465.69 57.13,-421.26"/>
<polygon fill="grey" stroke="grey" stroke-width="2" points="60.22,-419.61 52.62,-412.23 53.96,-422.74 60.22,-419.61"/>
</g>
<!-- 3 -->
<g id="node4" class="node">
<title>3</title>
<path fill="none" stroke="#d6d856" stroke-width="2" d="M328.5,-556C328.5,-556 293.5,-556 293.5,-556 287.5,-556 281.5,-550 281.5,-544 281.5,-544 281.5,-532 281.5,-532 281.5,-526 287.5,-520 293.5,-520 293.5,-520 328.5,-520 328.5,-520 334.5,-520 340.5,-526 340.5,-532 340.5,-532 340.5,-544 340.5,-544 340.5,-550 334.5,-556 328.5,-556"/>
<text text-anchor="middle" x="311" y="-535.5" font-family="sans" font-size="10.00">fastp_pe</text>
</g>
<!-- 2&#45;&gt;3 -->
<g id="edge25" class="edge">
<title>2&#45;&gt;3</title>
<path fill="none" stroke="grey" stroke-width="2" d="M190.14,-591.88C214.97,-581.01 246.98,-567.01 271.81,-556.14"/>
<polygon fill="grey" stroke="grey" stroke-width="2" points="273.53,-559.21 281.29,-552 270.73,-552.8 273.53,-559.21"/>
</g>
<!-- 3&#45;&gt;0 -->
<g id="edge2" class="edge">
<title>3&#45;&gt;0</title>
<path fill="none" stroke="grey" stroke-width="2" d="M281.38,-530.12C226.83,-515.49 116,-475.83 116,-395 116,-395 116,-395 116,-169 116,-106.12 161.83,-98.19 219,-72 303.25,-33.4 588.21,-22.52 690.8,-19.81"/>
<polygon fill="grey" stroke="grey" stroke-width="2" points="691.08,-23.3 700.99,-19.55 690.91,-16.3 691.08,-23.3"/>
</g>
<!-- 4 -->
<g id="node5" class="node">
<title>4</title>
<path fill="none" stroke="#56d8b9" stroke-width="2" d="M225.5,-268C225.5,-268 156.5,-268 156.5,-268 150.5,-268 144.5,-262 144.5,-256 144.5,-256 144.5,-244 144.5,-244 144.5,-238 150.5,-232 156.5,-232 156.5,-232 225.5,-232 225.5,-232 231.5,-232 237.5,-238 237.5,-244 237.5,-244 237.5,-256 237.5,-256 237.5,-262 231.5,-268 225.5,-268"/>
<text text-anchor="middle" x="191" y="-247.5" font-family="sans" font-size="10.00">fastqc_posttrim</text>
</g>
<!-- 3&#45;&gt;4 -->
<g id="edge26" class="edge">
<title>3&#45;&gt;4</title>
<path fill="none" stroke="grey" stroke-width="2" d="M292.64,-519.96C269.81,-497.57 231.59,-455.93 213,-412 194.33,-367.88 190.75,-311.46 190.45,-278.46"/>
<polygon fill="grey" stroke="grey" stroke-width="2" points="193.95,-278.22 190.46,-268.22 186.95,-278.22 193.95,-278.22"/>
</g>
<!-- 5 -->
<g id="node6" class="node">
<title>5</title>
<path fill="none" stroke="#5663d8" stroke-width="2" d="M289.5,-412C289.5,-412 234.5,-412 234.5,-412 228.5,-412 222.5,-406 222.5,-400 222.5,-400 222.5,-388 222.5,-388 222.5,-382 228.5,-376 234.5,-376 234.5,-376 289.5,-376 289.5,-376 295.5,-376 301.5,-382 301.5,-388 301.5,-388 301.5,-400 301.5,-400 301.5,-406 295.5,-412 289.5,-412"/>
<text text-anchor="middle" x="262" y="-397" font-family="sans" font-size="10.00">fastq_screen</text>
<text text-anchor="middle" x="262" y="-386" font-family="sans" font-size="10.00">read: R1</text>
</g>
<!-- 3&#45;&gt;5 -->
<g id="edge27" class="edge">
<title>3&#45;&gt;5</title>
<path fill="none" stroke="grey" stroke-width="2" d="M305.09,-519.87C296.7,-495.56 281.26,-450.82 271.32,-422.01"/>
<polygon fill="grey" stroke="grey" stroke-width="2" points="274.5,-420.5 267.93,-412.19 267.88,-422.78 274.5,-420.5"/>
</g>
<!-- 6 -->
<g id="node7" class="node">
<title>6</title>
<path fill="none" stroke="#5663d8" stroke-width="2" d="M361.5,-268C361.5,-268 306.5,-268 306.5,-268 300.5,-268 294.5,-262 294.5,-256 294.5,-256 294.5,-244 294.5,-244 294.5,-238 300.5,-232 306.5,-232 306.5,-232 361.5,-232 361.5,-232 367.5,-232 373.5,-238 373.5,-244 373.5,-244 373.5,-256 373.5,-256 373.5,-262 367.5,-268 361.5,-268"/>
<text text-anchor="middle" x="334" y="-253" font-family="sans" font-size="10.00">fastq_screen</text>
<text text-anchor="middle" x="334" y="-242" font-family="sans" font-size="10.00">read: R2</text>
</g>
<!-- 3&#45;&gt;6 -->
<g id="edge28" class="edge">
<title>3&#45;&gt;6</title>
<path fill="none" stroke="grey" stroke-width="2" d="M312.37,-519.97C316.2,-472.29 327.07,-337.18 331.78,-278.63"/>
<polygon fill="grey" stroke="grey" stroke-width="2" points="335.3,-278.55 332.61,-268.31 328.32,-277.99 335.3,-278.55"/>
</g>
<!-- 7 -->
<g id="node8" class="node">
<title>7</title>
<path fill="none" stroke="#68d856" stroke-width="2" d="M430,-484C430,-484 370,-484 370,-484 364,-484 358,-478 358,-472 358,-472 358,-460 358,-460 358,-454 364,-448 370,-448 370,-448 430,-448 430,-448 436,-448 442,-454 442,-460 442,-460 442,-472 442,-472 442,-478 436,-484 430,-484"/>
<text text-anchor="middle" x="400" y="-469" font-family="sans" font-size="10.00">blastn_screen</text>
<text text-anchor="middle" x="400" y="-458" font-family="sans" font-size="10.00">read: R1</text>
</g>
<!-- 3&#45;&gt;7 -->
<g id="edge29" class="edge">
<title>3&#45;&gt;7</title>
<path fill="none" stroke="grey" stroke-width="2" d="M333,-519.7C344.21,-510.88 358,-500.03 370.15,-490.47"/>
<polygon fill="grey" stroke="grey" stroke-width="2" points="372.56,-493.04 378.25,-484.1 368.23,-487.54 372.56,-493.04"/>
</g>
<!-- 8 -->
<g id="node9" class="node">
<title>8</title>
<path fill="none" stroke="#68d856" stroke-width="2" d="M532,-484C532,-484 472,-484 472,-484 466,-484 460,-478 460,-472 460,-472 460,-460 460,-460 460,-454 466,-448 472,-448 472,-448 532,-448 532,-448 538,-448 544,-454 544,-460 544,-460 544,-472 544,-472 544,-478 538,-484 532,-484"/>
<text text-anchor="middle" x="502" y="-469" font-family="sans" font-size="10.00">blastn_screen</text>
<text text-anchor="middle" x="502" y="-458" font-family="sans" font-size="10.00">read: R2</text>
</g>
<!-- 3&#45;&gt;8 -->
<g id="edge30" class="edge">
<title>3&#45;&gt;8</title>
<path fill="none" stroke="grey" stroke-width="2" d="M340.84,-526.06C370.09,-515.34 415.27,-498.79 450.36,-485.93"/>
<polygon fill="grey" stroke="grey" stroke-width="2" points="451.78,-489.13 459.97,-482.41 449.37,-482.56 451.78,-489.13"/>
</g>
<!-- 11 -->
<g id="node12" class="node">
<title>11</title>
<path fill="none" stroke="#56d87b" stroke-width="2" d="M1066.5,-484C1066.5,-484 991.5,-484 991.5,-484 985.5,-484 979.5,-478 979.5,-472 979.5,-472 979.5,-460 979.5,-460 979.5,-454 985.5,-448 991.5,-448 991.5,-448 1066.5,-448 1066.5,-448 1072.5,-448 1078.5,-454 1078.5,-460 1078.5,-460 1078.5,-472 1078.5,-472 1078.5,-478 1072.5,-484 1066.5,-484"/>
<text text-anchor="middle" x="1029" y="-463.5" font-family="sans" font-size="10.00">bowtie2_atac_pe</text>
</g>
<!-- 3&#45;&gt;11 -->
<g id="edge33" class="edge">
<title>3&#45;&gt;11</title>
<path fill="none" stroke="grey" stroke-width="2" d="M340.94,-534.08C449.28,-523.52 822.23,-487.16 968.99,-472.85"/>
<polygon fill="grey" stroke="grey" stroke-width="2" points="969.54,-476.31 979.16,-471.86 968.86,-469.35 969.54,-476.31"/>
</g>
<!-- 4&#45;&gt;0 -->
<g id="edge3" class="edge">
<title>4&#45;&gt;0</title>
<path fill="none" stroke="grey" stroke-width="2" d="M191.25,-231.78C192.79,-195.68 201.88,-112.11 252,-72 286.05,-44.75 583.97,-26.57 690.41,-20.89"/>
<polygon fill="grey" stroke="grey" stroke-width="2" points="690.87,-24.37 700.68,-20.35 690.51,-17.38 690.87,-24.37"/>
</g>
<!-- 5&#45;&gt;0 -->
<g id="edge4" class="edge">
<title>5&#45;&gt;0</title>
<path fill="none" stroke="grey" stroke-width="2" d="M262.79,-375.96C263.96,-349.3 266,-296.13 266,-251 266,-251 266,-251 266,-169 266,-109.89 304.56,-99.28 357,-72 414.72,-41.98 608.66,-26.52 690.78,-21.19"/>
<polygon fill="grey" stroke="grey" stroke-width="2" points="691.15,-24.67 700.91,-20.55 690.71,-17.69 691.15,-24.67"/>
</g>
<!-- 6&#45;&gt;0 -->
<g id="edge5" class="edge">
<title>6&#45;&gt;0</title>
<path fill="none" stroke="grey" stroke-width="2" d="M333.67,-231.74C333.99,-195.93 340.2,-113.48 388,-72 432.66,-33.25 611.52,-22.74 690.36,-19.96"/>
<polygon fill="grey" stroke="grey" stroke-width="2" points="690.91,-23.45 700.79,-19.62 690.68,-16.45 690.91,-23.45"/>
</g>
<!-- 7&#45;&gt;0 -->
<g id="edge6" class="edge">
<title>7&#45;&gt;0</title>
<path fill="none" stroke="grey" stroke-width="2" d="M400.4,-447.95C400.98,-421.29 402,-368.12 402,-323 402,-323 402,-323 402,-169 402,-120.7 412.43,-101.08 451,-72 488.3,-43.88 623.86,-28.24 690.5,-22.09"/>
<polygon fill="grey" stroke="grey" stroke-width="2" points="690.93,-25.57 700.58,-21.19 690.3,-18.59 690.93,-25.57"/>
</g>
<!-- 8&#45;&gt;0 -->
<g id="edge7" class="edge">
<title>8&#45;&gt;0</title>
<path fill="none" stroke="grey" stroke-width="2" d="M488.85,-447.69C470.65,-421.95 440,-371.42 440,-323 440,-323 440,-323 440,-169 440,-120.5 451.59,-101.62 490,-72 521.07,-48.04 631.93,-30.99 690.74,-23.4"/>
<polygon fill="grey" stroke="grey" stroke-width="2" points="691.26,-26.87 700.74,-22.14 690.38,-19.92 691.26,-26.87"/>
</g>
<!-- 9 -->
<g id="node10" class="node">
<title>9</title>
<path fill="none" stroke="#c6d856" stroke-width="2" d="M979.5,-340C979.5,-340 908.5,-340 908.5,-340 902.5,-340 896.5,-334 896.5,-328 896.5,-328 896.5,-316 896.5,-316 896.5,-310 902.5,-304 908.5,-304 908.5,-304 979.5,-304 979.5,-304 985.5,-304 991.5,-310 991.5,-316 991.5,-316 991.5,-328 991.5,-328 991.5,-334 985.5,-340 979.5,-340"/>
<text text-anchor="middle" x="944" y="-325" font-family="sans" font-size="10.00">filter_bam</text>
<text text-anchor="middle" x="944" y="-314" font-family="sans" font-size="10.00">aligner: bowtie2</text>
</g>
<!-- 9&#45;&gt;0 -->
<g id="edge8" class="edge">
<title>9&#45;&gt;0</title>
<path fill="none" stroke="grey" stroke-width="2" d="M896.45,-318.83C831.7,-314.65 712.97,-302.56 618,-268 559.19,-246.6 527.93,-250.4 497,-196 469.12,-146.97 482.09,-109.74 524,-72 570.45,-30.17 645.73,-20.57 690.69,-18.81"/>
<polygon fill="grey" stroke="grey" stroke-width="2" points="690.99,-22.3 700.89,-18.52 690.8,-15.3 690.99,-22.3"/>
</g>
<!-- 15 -->
<g id="node16" class="node">
<title>15</title>
<path fill="none" stroke="#56b9d8" stroke-width="2" d="M619.5,-188C619.5,-188 518.5,-188 518.5,-188 512.5,-188 506.5,-182 506.5,-176 506.5,-176 506.5,-164 506.5,-164 506.5,-158 512.5,-152 518.5,-152 518.5,-152 619.5,-152 619.5,-152 625.5,-152 631.5,-158 631.5,-164 631.5,-164 631.5,-176 631.5,-176 631.5,-182 625.5,-188 619.5,-188"/>
<text text-anchor="middle" x="569" y="-173" font-family="sans" font-size="10.00">count_reads_in_peaks</text>
<text text-anchor="middle" x="569" y="-162" font-family="sans" font-size="10.00">dupmode: filtered</text>
</g>
<!-- 9&#45;&gt;15 -->
<g id="edge38" class="edge">
<title>9&#45;&gt;15</title>
<path fill="none" stroke="grey" stroke-width="2" d="M896.46,-320.33C838.77,-317.69 740.04,-307.2 666,-268 633.34,-250.71 604.63,-218.74 587.09,-196.24"/>
<polygon fill="grey" stroke="grey" stroke-width="2" points="589.76,-193.97 580.92,-188.13 584.19,-198.21 589.76,-193.97"/>
</g>
<!-- 16 -->
<g id="node17" class="node">
<title>16</title>
<path fill="none" stroke="#d85656" stroke-width="2" d="M818.5,-268C818.5,-268 687.5,-268 687.5,-268 681.5,-268 675.5,-262 675.5,-256 675.5,-256 675.5,-244 675.5,-244 675.5,-238 681.5,-232 687.5,-232 687.5,-232 818.5,-232 818.5,-232 824.5,-232 830.5,-238 830.5,-244 830.5,-244 830.5,-256 830.5,-256 830.5,-262 824.5,-268 818.5,-268"/>
<text text-anchor="middle" x="753" y="-247.5" font-family="sans" font-size="10.00">macs_call_narrowpeak_atac</text>
</g>
<!-- 9&#45;&gt;16 -->
<g id="edge39" class="edge">
<title>9&#45;&gt;16</title>
<path fill="none" stroke="grey" stroke-width="2" d="M897.28,-303.88C870.7,-294.14 837.24,-281.87 809.23,-271.61"/>
<polygon fill="grey" stroke="grey" stroke-width="2" points="810.17,-268.22 799.57,-268.07 807.76,-274.8 810.17,-268.22"/>
</g>
<!-- 18 -->
<g id="node19" class="node">
<title>18</title>
<path fill="none" stroke="#59d856" stroke-width="2" d="M814,-188C814,-188 662,-188 662,-188 656,-188 650,-182 650,-176 650,-176 650,-164 650,-164 650,-158 656,-152 662,-152 662,-152 814,-152 814,-152 820,-152 826,-158 826,-164 826,-164 826,-176 826,-176 826,-182 820,-188 814,-188"/>
<text text-anchor="middle" x="738" y="-173" font-family="sans" font-size="10.00">featureCounts_TSS_b2k.by_gene</text>
<text text-anchor="middle" x="738" y="-162" font-family="sans" font-size="10.00">dupmode: filtered</text>
</g>
<!-- 9&#45;&gt;18 -->
<g id="edge41" class="edge">
<title>9&#45;&gt;18</title>
<path fill="none" stroke="grey" stroke-width="2" d="M925.77,-303.98C905.38,-285.33 871.02,-255.01 839,-232 819.61,-218.07 796.95,-204.18 778,-193.18"/>
<polygon fill="grey" stroke="grey" stroke-width="2" points="779.73,-190.13 769.31,-188.18 776.24,-196.2 779.73,-190.13"/>
</g>
<!-- 19 -->
<g id="node20" class="node">
<title>19</title>
<path fill="none" stroke="#567bd8" stroke-width="2" d="M1031.5,-188C1031.5,-188 856.5,-188 856.5,-188 850.5,-188 844.5,-182 844.5,-176 844.5,-176 844.5,-164 844.5,-164 844.5,-158 850.5,-152 856.5,-152 856.5,-152 1031.5,-152 1031.5,-152 1037.5,-152 1043.5,-158 1043.5,-164 1043.5,-164 1043.5,-176 1043.5,-176 1043.5,-182 1037.5,-188 1031.5,-188"/>
<text text-anchor="middle" x="944" y="-173" font-family="sans" font-size="10.00">featureCounts_TSS_b2k.by_transcript</text>
<text text-anchor="middle" x="944" y="-162" font-family="sans" font-size="10.00">dupmode: filtered</text>
</g>
<!-- 9&#45;&gt;19 -->
<g id="edge42" class="edge">
<title>9&#45;&gt;19</title>
<path fill="none" stroke="grey" stroke-width="2" d="M944,-303.79C944,-277.91 944,-228.73 944,-198.03"/>
<polygon fill="grey" stroke="grey" stroke-width="2" points="947.5,-198.01 944,-188.01 940.5,-198.01 947.5,-198.01"/>
</g>
<!-- 20 -->
<g id="node21" class="node">
<title>20</title>
<path fill="none" stroke="#56a9d8" stroke-width="2" d="M1202,-188C1202,-188 1074,-188 1074,-188 1068,-188 1062,-182 1062,-176 1062,-176 1062,-164 1062,-164 1062,-158 1068,-152 1074,-152 1074,-152 1202,-152 1202,-152 1208,-152 1214,-158 1214,-164 1214,-164 1214,-176 1214,-176 1214,-182 1208,-188 1202,-188"/>
<text text-anchor="middle" x="1138" y="-173" font-family="sans" font-size="10.00">featureCounts_spikein_dm6</text>
<text text-anchor="middle" x="1138" y="-162" font-family="sans" font-size="10.00">dupmode: filtered</text>
</g>
<!-- 9&#45;&gt;20 -->
<g id="edge43" class="edge">
<title>9&#45;&gt;20</title>
<path fill="none" stroke="grey" stroke-width="2" d="M966.25,-303.79C1001.04,-276.89 1068.39,-224.83 1107.61,-194.49"/>
<polygon fill="grey" stroke="grey" stroke-width="2" points="1110.24,-196.89 1116.01,-188.01 1105.95,-191.35 1110.24,-196.89"/>
</g>
<!-- 24 -->
<g id="node25" class="node">
<title>24</title>
<path fill="none" stroke="#d8a456" stroke-width="2" d="M1344,-196C1344,-196 1244,-196 1244,-196 1238,-196 1232,-190 1232,-184 1232,-184 1232,-156 1232,-156 1232,-150 1238,-144 1244,-144 1244,-144 1344,-144 1344,-144 1350,-144 1356,-150 1356,-156 1356,-156 1356,-184 1356,-184 1356,-190 1350,-196 1344,-196"/>
<text text-anchor="middle" x="1294" y="-184" font-family="sans" font-size="10.00">bamcoverage_dnaseq</text>
<text text-anchor="middle" x="1294" y="-173" font-family="sans" font-size="10.00">dupmode: filtered</text>
<text text-anchor="middle" x="1294" y="-162" font-family="sans" font-size="10.00">mapq: 1</text>
<text text-anchor="middle" x="1294" y="-151" font-family="sans" font-size="10.00">norm: None</text>
</g>
<!-- 9&#45;&gt;24 -->
<g id="edge47" class="edge">
<title>9&#45;&gt;24</title>
<path fill="none" stroke="grey" stroke-width="2" d="M983.81,-303.94C1042.79,-278.66 1154.17,-230.93 1226.18,-200.07"/>
<polygon fill="grey" stroke="grey" stroke-width="2" points="1227.82,-203.17 1235.63,-196.01 1225.06,-196.74 1227.82,-203.17"/>
</g>
<!-- 25 -->
<g id="node26" class="node">
<title>25</title>
<path fill="none" stroke="#d8a456" stroke-width="2" d="M1486,-196C1486,-196 1386,-196 1386,-196 1380,-196 1374,-190 1374,-184 1374,-184 1374,-156 1374,-156 1374,-150 1380,-144 1386,-144 1386,-144 1486,-144 1486,-144 1492,-144 1498,-150 1498,-156 1498,-156 1498,-184 1498,-184 1498,-190 1492,-196 1486,-196"/>
<text text-anchor="middle" x="1436" y="-184" font-family="sans" font-size="10.00">bamcoverage_dnaseq</text>
<text text-anchor="middle" x="1436" y="-173" font-family="sans" font-size="10.00">dupmode: filtered</text>
<text text-anchor="middle" x="1436" y="-162" font-family="sans" font-size="10.00">mapq: 1</text>
<text text-anchor="middle" x="1436" y="-151" font-family="sans" font-size="10.00">norm: RPKM</text>
</g>
<!-- 9&#45;&gt;25 -->
<g id="edge48" class="edge">
<title>9&#45;&gt;25</title>
<path fill="none" stroke="grey" stroke-width="2" d="M991.62,-307.8C1068.17,-286.39 1223.43,-242.1 1364.05,-196.27"/>
<polygon fill="grey" stroke="grey" stroke-width="2" points="1365.3,-199.54 1373.71,-193.1 1363.12,-192.89 1365.3,-199.54"/>
</g>
<!-- 10 -->
<g id="node11" class="node">
<title>10</title>
<path fill="none" stroke="#56d8d8" stroke-width="2" d="M1501,-412C1501,-412 1385,-412 1385,-412 1379,-412 1373,-406 1373,-400 1373,-400 1373,-388 1373,-388 1373,-382 1379,-376 1385,-376 1385,-376 1501,-376 1501,-376 1507,-376 1513,-382 1513,-388 1513,-388 1513,-400 1513,-400 1513,-406 1507,-412 1501,-412"/>
<text text-anchor="middle" x="1443" y="-391.5" font-family="sans" font-size="10.00">picard_markdup_bowtie2</text>
</g>
<!-- 10&#45;&gt;9 -->
<g id="edge31" class="edge">
<title>10&#45;&gt;9</title>
<path fill="none" stroke="grey" stroke-width="2" d="M1372.83,-383.16C1273.47,-369.22 1093.67,-344 1001.65,-331.09"/>
<polygon fill="grey" stroke="grey" stroke-width="2" points="1002.07,-327.61 991.68,-329.69 1001.09,-334.54 1002.07,-327.61"/>
</g>
<!-- 12 -->
<g id="node13" class="node">
<title>12</title>
<path fill="none" stroke="#d87556" stroke-width="2" d="M1590.5,-268C1590.5,-268 1519.5,-268 1519.5,-268 1513.5,-268 1507.5,-262 1507.5,-256 1507.5,-256 1507.5,-244 1507.5,-244 1507.5,-238 1513.5,-232 1519.5,-232 1519.5,-232 1590.5,-232 1590.5,-232 1596.5,-232 1602.5,-238 1602.5,-244 1602.5,-244 1602.5,-256 1602.5,-256 1602.5,-262 1596.5,-268 1590.5,-268"/>
<text text-anchor="middle" x="1555" y="-253" font-family="sans" font-size="10.00">samtools_stats</text>
<text text-anchor="middle" x="1555" y="-242" font-family="sans" font-size="10.00">aligner: bowtie2</text>
</g>
<!-- 10&#45;&gt;12 -->
<g id="edge34" class="edge">
<title>10&#45;&gt;12</title>
<path fill="none" stroke="grey" stroke-width="2" d="M1442.64,-375.93C1443.08,-356.68 1446.42,-325.3 1462,-304 1471.45,-291.08 1485.07,-280.86 1498.98,-272.97"/>
<polygon fill="grey" stroke="grey" stroke-width="2" points="1500.93,-275.9 1508.13,-268.13 1497.65,-269.72 1500.93,-275.9"/>
</g>
<!-- 13 -->
<g id="node14" class="node">
<title>13</title>
<path fill="none" stroke="#56d88a" stroke-width="2" d="M1590.5,-340C1590.5,-340 1483.5,-340 1483.5,-340 1477.5,-340 1471.5,-334 1471.5,-328 1471.5,-328 1471.5,-316 1471.5,-316 1471.5,-310 1477.5,-304 1483.5,-304 1483.5,-304 1590.5,-304 1590.5,-304 1596.5,-304 1602.5,-310 1602.5,-316 1602.5,-316 1602.5,-328 1602.5,-328 1602.5,-334 1596.5,-340 1590.5,-340"/>
<text text-anchor="middle" x="1537" y="-325" font-family="sans" font-size="10.00">picard_collectinsertsize</text>
<text text-anchor="middle" x="1537" y="-314" font-family="sans" font-size="10.00">aligner: bowtie2</text>
</g>
<!-- 10&#45;&gt;13 -->
<g id="edge35" class="edge">
<title>10&#45;&gt;13</title>
<path fill="none" stroke="grey" stroke-width="2" d="M1466.24,-375.7C1478.19,-366.8 1492.92,-355.82 1505.85,-346.2"/>
<polygon fill="grey" stroke="grey" stroke-width="2" points="1508.1,-348.88 1514.03,-340.1 1503.92,-343.27 1508.1,-348.88"/>
</g>
<!-- 14 -->
<g id="node15" class="node">
<title>14</title>
<path fill="none" stroke="#d88556" stroke-width="2" d="M1791,-340C1791,-340 1633,-340 1633,-340 1627,-340 1621,-334 1621,-328 1621,-328 1621,-316 1621,-316 1621,-310 1627,-304 1633,-304 1633,-304 1791,-304 1791,-304 1797,-304 1803,-310 1803,-316 1803,-316 1803,-328 1803,-328 1803,-334 1797,-340 1791,-340"/>
<text text-anchor="middle" x="1712" y="-325" font-family="sans" font-size="10.00">picard_estimatelibrarycomplexity</text>
<text text-anchor="middle" x="1712" y="-314" font-family="sans" font-size="10.00">aligner: bowtie2</text>
</g>
<!-- 10&#45;&gt;14 -->
<g id="edge36" class="edge">
<title>10&#45;&gt;14</title>
<path fill="none" stroke="grey" stroke-width="2" d="M1508.46,-375.97C1547.11,-365.91 1596.19,-353.14 1636.47,-342.65"/>
<polygon fill="grey" stroke="grey" stroke-width="2" points="1637.45,-346.02 1646.25,-340.11 1635.69,-339.24 1637.45,-346.02"/>
</g>
<!-- 11&#45;&gt;10 -->
<g id="edge32" class="edge">
<title>11&#45;&gt;10</title>
<path fill="none" stroke="grey" stroke-width="2" d="M1078.53,-456.63C1148.86,-444.73 1278.45,-422.82 1362.65,-408.59"/>
<polygon fill="grey" stroke="grey" stroke-width="2" points="1363.41,-412.01 1372.68,-406.89 1362.24,-405.11 1363.41,-412.01"/>
</g>
<!-- 12&#45;&gt;0 -->
<g id="edge9" class="edge">
<title>12&#45;&gt;0</title>
<path fill="none" stroke="grey" stroke-width="2" d="M1571.07,-231.78C1601.47,-197.12 1660.65,-118.33 1617,-72 1587.33,-40.51 929.9,-23.57 765.17,-19.81"/>
<polygon fill="grey" stroke="grey" stroke-width="2" points="765.12,-16.31 755.04,-19.58 764.96,-23.3 765.12,-16.31"/>
</g>
<!-- 13&#45;&gt;0 -->
<g id="edge10" class="edge">
<title>13&#45;&gt;0</title>
<path fill="none" stroke="grey" stroke-width="2" d="M1571.26,-303.81C1585.58,-294.97 1601.15,-282.9 1611,-268 1659.52,-194.59 1699.39,-136 1639,-72 1608.53,-39.71 932.75,-23.33 765.29,-19.76"/>
<polygon fill="grey" stroke="grey" stroke-width="2" points="765.3,-16.26 755.22,-19.54 765.15,-23.25 765.3,-16.26"/>
</g>
<!-- 14&#45;&gt;0 -->
<g id="edge11" class="edge">
<title>14&#45;&gt;0</title>
<path fill="none" stroke="grey" stroke-width="2" d="M1715.09,-303.74C1722.21,-257.83 1734.28,-132.16 1666,-72 1631.65,-41.73 935.88,-23.79 765.44,-19.83"/>
<polygon fill="grey" stroke="grey" stroke-width="2" points="765.51,-16.33 755.44,-19.6 765.35,-23.33 765.51,-16.33"/>
</g>
<!-- 15&#45;&gt;0 -->
<g id="edge12" class="edge">
<title>15&#45;&gt;0</title>
<path fill="none" stroke="grey" stroke-width="2" d="M553.84,-151.68C537.64,-130.98 516.61,-96.12 535,-72 553.82,-47.31 640.4,-31.27 690.98,-23.83"/>
<polygon fill="grey" stroke="grey" stroke-width="2" points="691.48,-27.29 700.88,-22.41 690.49,-20.36 691.48,-27.29"/>
</g>
<!-- 17 -->
<g id="node18" class="node">
<title>17</title>
<path fill="none" stroke="#a7d856" stroke-width="2" d="M591.5,-108C591.5,-108 556.5,-108 556.5,-108 550.5,-108 544.5,-102 544.5,-96 544.5,-96 544.5,-84 544.5,-84 544.5,-78 550.5,-72 556.5,-72 556.5,-72 591.5,-72 591.5,-72 597.5,-72 603.5,-78 603.5,-84 603.5,-84 603.5,-96 603.5,-96 603.5,-102 597.5,-108 591.5,-108"/>
<text text-anchor="middle" x="574" y="-87.5" font-family="sans" font-size="10.00">get_FRiP</text>
</g>
<!-- 15&#45;&gt;17 -->
<g id="edge40" class="edge">
<title>15&#45;&gt;17</title>
<path fill="none" stroke="grey" stroke-width="2" d="M570.11,-151.69C570.74,-141.89 571.54,-129.42 572.25,-118.33"/>
<polygon fill="grey" stroke="grey" stroke-width="2" points="575.75,-118.47 572.89,-108.26 568.76,-118.02 575.75,-118.47"/>
</g>
<!-- 16&#45;&gt;15 -->
<g id="edge37" class="edge">
<title>16&#45;&gt;15</title>
<path fill="none" stroke="grey" stroke-width="2" d="M712.62,-231.88C684.94,-220.15 648.04,-204.5 618.57,-192.01"/>
<polygon fill="grey" stroke="grey" stroke-width="2" points="619.86,-188.76 609.29,-188.08 617.13,-195.2 619.86,-188.76"/>
</g>
<!-- 17&#45;&gt;0 -->
<g id="edge13" class="edge">
<title>17&#45;&gt;0</title>
<path fill="none" stroke="grey" stroke-width="2" d="M603.69,-75.5C628.76,-64.11 664.74,-47.75 691.55,-35.57"/>
<polygon fill="grey" stroke="grey" stroke-width="2" points="693.32,-38.61 700.98,-31.28 690.42,-32.23 693.32,-38.61"/>
</g>
<!-- 18&#45;&gt;0 -->
<g id="edge14" class="edge">
<title>18&#45;&gt;0</title>
<path fill="none" stroke="grey" stroke-width="2" d="M698.17,-151.77C680.31,-141.78 661.04,-127.31 651,-108 643.62,-93.81 643.56,-86.16 651,-72 659.71,-55.43 676.21,-43.03 691.7,-34.41"/>
<polygon fill="grey" stroke="grey" stroke-width="2" points="693.38,-37.48 700.64,-29.77 690.16,-31.27 693.38,-37.48"/>
</g>
<!-- 21 -->
<g id="node22" class="node">
<title>21</title>
<path fill="none" stroke="#56d8c9" stroke-width="2" d="M784,-108C784,-108 672,-108 672,-108 666,-108 660,-102 660,-96 660,-96 660,-84 660,-84 660,-78 666,-72 672,-72 672,-72 784,-72 784,-72 790,-72 796,-78 796,-84 796,-84 796,-96 796,-96 796,-102 790,-108 784,-108"/>
<text text-anchor="middle" x="728" y="-93" font-family="sans" font-size="10.00">merge_featureCounts</text>
<text text-anchor="middle" x="728" y="-82" font-family="sans" font-size="10.00">name: TSS_b2k.by_gene</text>
</g>
<!-- 18&#45;&gt;21 -->
<g id="edge44" class="edge">
<title>18&#45;&gt;21</title>
<path fill="none" stroke="grey" stroke-width="2" d="M735.78,-151.69C734.52,-141.89 732.93,-129.42 731.5,-118.33"/>
<polygon fill="grey" stroke="grey" stroke-width="2" points="734.96,-117.74 730.21,-108.26 728.01,-118.63 734.96,-117.74"/>
</g>
<!-- 19&#45;&gt;0 -->
<g id="edge15" class="edge">
<title>19&#45;&gt;0</title>
<path fill="none" stroke="grey" stroke-width="2" d="M911.93,-151.97C891.49,-140.56 864.84,-124.63 843,-108 824.49,-93.9 823.08,-86.64 805,-72 791.96,-61.44 776.9,-50.77 763.58,-41.8"/>
<polygon fill="grey" stroke="grey" stroke-width="2" points="765.37,-38.79 755.11,-36.17 761.5,-44.62 765.37,-38.79"/>
</g>
<!-- 22 -->
<g id="node23" class="node">
<title>22</title>
<path fill="none" stroke="#56d8c9" stroke-width="2" d="M998,-108C998,-108 864,-108 864,-108 858,-108 852,-102 852,-96 852,-96 852,-84 852,-84 852,-78 858,-72 864,-72 864,-72 998,-72 998,-72 1004,-72 1010,-78 1010,-84 1010,-84 1010,-96 1010,-96 1010,-102 1004,-108 998,-108"/>
<text text-anchor="middle" x="931" y="-93" font-family="sans" font-size="10.00">merge_featureCounts</text>
<text text-anchor="middle" x="931" y="-82" font-family="sans" font-size="10.00">name: TSS_b2k.by_transcript</text>
</g>
<!-- 19&#45;&gt;22 -->
<g id="edge45" class="edge">
<title>19&#45;&gt;22</title>
<path fill="none" stroke="grey" stroke-width="2" d="M941.11,-151.69C939.48,-141.89 937.4,-129.42 935.56,-118.33"/>
<polygon fill="grey" stroke="grey" stroke-width="2" points="938.97,-117.55 933.88,-108.26 932.07,-118.7 938.97,-117.55"/>
</g>
<!-- 20&#45;&gt;0 -->
<g id="edge16" class="edge">
<title>20&#45;&gt;0</title>
<path fill="none" stroke="grey" stroke-width="2" d="M1113.7,-151.81C1097.32,-139.95 1075.42,-123.57 1057,-108 1039.24,-92.98 1039.75,-82.52 1019,-72 935.35,-29.59 822.95,-20.72 765.39,-19.11"/>
<polygon fill="grey" stroke="grey" stroke-width="2" points="765.38,-15.61 755.3,-18.89 765.22,-22.61 765.38,-15.61"/>
</g>
<!-- 23 -->
<g id="node24" class="node">
<title>23</title>
<path fill="none" stroke="#56d8c9" stroke-width="2" d="M1176,-108C1176,-108 1078,-108 1078,-108 1072,-108 1066,-102 1066,-96 1066,-96 1066,-84 1066,-84 1066,-78 1072,-72 1078,-72 1078,-72 1176,-72 1176,-72 1182,-72 1188,-78 1188,-84 1188,-84 1188,-96 1188,-96 1188,-102 1182,-108 1176,-108"/>
<text text-anchor="middle" x="1127" y="-93" font-family="sans" font-size="10.00">merge_featureCounts</text>
<text text-anchor="middle" x="1127" y="-82" font-family="sans" font-size="10.00">name: spikein_dm6</text>
</g>
<!-- 20&#45;&gt;23 -->
<g id="edge46" class="edge">
<title>20&#45;&gt;23</title>
<path fill="none" stroke="grey" stroke-width="2" d="M1135.56,-151.69C1134.18,-141.89 1132.42,-129.42 1130.85,-118.33"/>
<polygon fill="grey" stroke="grey" stroke-width="2" points="1134.3,-117.68 1129.43,-108.26 1127.37,-118.65 1134.3,-117.68"/>
</g>
<!-- 21&#45;&gt;0 -->
<g id="edge17" class="edge">
<title>21&#45;&gt;0</title>
<path fill="none" stroke="grey" stroke-width="2" d="M728,-71.7C728,-63.98 728,-54.71 728,-46.11"/>
<polygon fill="grey" stroke="grey" stroke-width="2" points="731.5,-46.1 728,-36.1 724.5,-46.1 731.5,-46.1"/>
</g>
<!-- 22&#45;&gt;0 -->
<g id="edge18" class="edge">
<title>22&#45;&gt;0</title>
<path fill="none" stroke="grey" stroke-width="2" d="M881.6,-71.97C845.54,-59.53 797.46,-42.95 764.76,-31.67"/>
<polygon fill="grey" stroke="grey" stroke-width="2" points="765.73,-28.31 755.13,-28.36 763.44,-34.92 765.73,-28.31"/>
</g>
<!-- 23&#45;&gt;0 -->
<g id="edge19" class="edge">
<title>23&#45;&gt;0</title>
<path fill="none" stroke="grey" stroke-width="2" d="M1065.67,-74.78C1061.05,-73.81 1056.46,-72.87 1052,-72 948.82,-51.89 826.15,-33.25 765.62,-24.4"/>
<polygon fill="grey" stroke="grey" stroke-width="2" points="765.81,-20.89 755.41,-22.91 764.8,-27.81 765.81,-20.89"/>
</g>
<!-- 24&#45;&gt;0 -->
<g id="edge20" class="edge">
<title>24&#45;&gt;0</title>
<path fill="none" stroke="grey" stroke-width="2" d="M1269.58,-143.76C1242.35,-115.76 1201.53,-74.18 1197,-72 1120.78,-35.28 862.34,-23.31 765.26,-20.06"/>
<polygon fill="grey" stroke="grey" stroke-width="2" points="765.15,-16.55 755.04,-19.73 764.93,-23.55 765.15,-16.55"/>
</g>
<!-- 26 -->
<g id="node27" class="node">
<title>26</title>
<path fill="none" stroke="#78d856" stroke-width="2" d="M1386,-108C1386,-108 1256,-108 1256,-108 1250,-108 1244,-102 1244,-96 1244,-96 1244,-84 1244,-84 1244,-78 1250,-72 1256,-72 1256,-72 1386,-72 1386,-72 1392,-72 1398,-78 1398,-84 1398,-84 1398,-96 1398,-96 1398,-102 1392,-108 1386,-108"/>
<text text-anchor="middle" x="1321" y="-87.5" font-family="sans" font-size="10.00">computematrix_per_sample</text>
</g>
<!-- 24&#45;&gt;26 -->
<g id="edge49" class="edge">
<title>24&#45;&gt;26</title>
<path fill="none" stroke="grey" stroke-width="2" d="M1302.69,-143.89C1305.54,-135.66 1308.72,-126.48 1311.62,-118.1"/>
<polygon fill="grey" stroke="grey" stroke-width="2" points="1315.01,-119.01 1314.97,-108.41 1308.39,-116.72 1315.01,-119.01"/>
</g>
<!-- 25&#45;&gt;0 -->
<g id="edge21" class="edge">
<title>25&#45;&gt;0</title>
<path fill="none" stroke="grey" stroke-width="2" d="M1435.92,-143.61C1434.36,-121.06 1428.2,-89.11 1407,-72 1356.89,-31.55 900.36,-21.56 765.4,-19.49"/>
<polygon fill="grey" stroke="grey" stroke-width="2" points="765.21,-15.98 755.16,-19.33 765.11,-22.98 765.21,-15.98"/>
</g>
<!-- 27 -->
<g id="node28" class="node">
<title>27</title>
<path fill="none" stroke="#78d856" stroke-width="2" d="M1596,-108C1596,-108 1466,-108 1466,-108 1460,-108 1454,-102 1454,-96 1454,-96 1454,-84 1454,-84 1454,-78 1460,-72 1466,-72 1466,-72 1596,-72 1596,-72 1602,-72 1608,-78 1608,-84 1608,-84 1608,-96 1608,-96 1608,-102 1602,-108 1596,-108"/>
<text text-anchor="middle" x="1531" y="-87.5" font-family="sans" font-size="10.00">computematrix_per_sample</text>
</g>
<!-- 25&#45;&gt;27 -->
<g id="edge50" class="edge">
<title>25&#45;&gt;27</title>
<path fill="none" stroke="grey" stroke-width="2" d="M1466.58,-143.89C1478.02,-134.5 1490.96,-123.88 1502.22,-114.63"/>
<polygon fill="grey" stroke="grey" stroke-width="2" points="1504.58,-117.22 1510.09,-108.17 1500.14,-111.81 1504.58,-117.22"/>
</g>
<!-- 26&#45;&gt;0 -->
<g id="edge22" class="edge">
<title>26&#45;&gt;0</title>
<path fill="none" stroke="grey" stroke-width="2" d="M1243.62,-74.11C1239.02,-73.36 1234.45,-72.65 1230,-72 1056.82,-46.72 848.33,-28.63 765.02,-21.89"/>
<polygon fill="grey" stroke="grey" stroke-width="2" points="765.28,-18.4 755.03,-21.09 764.72,-25.38 765.28,-18.4"/>
</g>
<!-- 27&#45;&gt;0 -->
<g id="edge23" class="edge">
<title>27&#45;&gt;0</title>
<path fill="none" stroke="grey" stroke-width="2" d="M1453.65,-73.95C1449.04,-73.24 1444.46,-72.58 1440,-72 1183.32,-38.57 871.62,-24.41 765.47,-20.33"/>
<polygon fill="grey" stroke="grey" stroke-width="2" points="765.4,-16.83 755.27,-19.95 765.13,-23.82 765.4,-16.83"/>
</g>
</g>
</svg>
